<svg width="43" height="43" viewBox="0 0 43 43" fill="none" xmlns="http://www.w3.org/2000/svg">
<g style="mix-blend-mode:color-burn">
<path d="M37.495 17.825H22.69V24.2475L25.4375 21.5C25.945 20.9925 26.785 20.9925 27.2925 21.5C27.8 22.0075 27.8 22.8475 27.2925 23.355L22.305 28.325C21.7975 28.8325 20.9575 28.8325 20.45 28.325L15.4625 23.355C15.2 23.0925 15.0775 22.76 15.0775 22.4275C15.0775 22.095 15.2175 21.7625 15.48 21.5C15.9875 20.9925 16.8275 20.9925 17.335 21.5L20.065 24.23V17.825H5.505C4.665 17.825 4 18.49 4 19.33C4 29.6375 11.1925 36.83 21.5 36.83C31.8075 36.83 39 29.6375 39 19.33C39 18.49 38.335 17.825 37.495 17.825Z" fill="black"/>
<path d="M22.6899 7.48251C22.6899 6.76501 22.0949 6.17001 21.3774 6.17001C20.6599 6.17001 20.0649 6.76501 20.0649 7.48251V17.8075H22.6899V7.48251Z" fill="black"/>
</g>
</svg>
