<svg width="388" height="477" viewBox="0 0 388 477" fill="none" xmlns="http://www.w3.org/2000/svg">
<g filter="url(#filter0_b_24_1261)">
<mask id="path-1-inside-1_24_1261" fill="white">
<path fill-rule="evenodd" clip-rule="evenodd" d="M195 198.461C250.228 198.461 295 153.689 295 98.4609C295 72.629 285.205 49.0847 269.127 31.3394C256.991 17.9445 250.923 11.2471 252.129 8.32475C253.336 5.40236 261.35 4.98925 277.379 4.16302L345.941 0.628917C365.678 -0.388465 375.547 -0.897156 381.773 5.01683C388 10.9308 388 20.8125 388 40.5759V420.47C388 438.456 388 447.449 382.502 453.239C377.003 459.028 368.022 459.491 350.059 460.417L42.0592 476.293C22.322 477.31 12.4534 477.819 6.22668 471.905C0 465.991 0 456.109 0 436.346V56.4521C0 38.4656 0 29.4724 5.49843 23.6832C10.9969 17.8941 19.9782 17.4311 37.9409 16.5052L103.408 13.1306C119.421 12.3052 127.428 11.8925 128.928 14.6774C130.428 17.4624 125.08 24.7345 114.385 39.2785C102.199 55.8495 95 76.3145 95 98.4609C95 153.689 139.772 198.461 195 198.461Z"/>
</mask>
<path fill-rule="evenodd" clip-rule="evenodd" d="M195 198.461C250.228 198.461 295 153.689 295 98.4609C295 72.629 285.205 49.0847 269.127 31.3394C256.991 17.9445 250.923 11.2471 252.129 8.32475C253.336 5.40236 261.35 4.98925 277.379 4.16302L345.941 0.628917C365.678 -0.388465 375.547 -0.897156 381.773 5.01683C388 10.9308 388 20.8125 388 40.5759V420.47C388 438.456 388 447.449 382.502 453.239C377.003 459.028 368.022 459.491 350.059 460.417L42.0592 476.293C22.322 477.31 12.4534 477.819 6.22668 471.905C0 465.991 0 456.109 0 436.346V56.4521C0 38.4656 0 29.4724 5.49843 23.6832C10.9969 17.8941 19.9782 17.4311 37.9409 16.5052L103.408 13.1306C119.421 12.3052 127.428 11.8925 128.928 14.6774C130.428 17.4624 125.08 24.7345 114.385 39.2785C102.199 55.8495 95 76.3145 95 98.4609C95 153.689 139.772 198.461 195 198.461Z" fill="black" fill-opacity="0.3"/>
<path d="M345.941 0.628917L345.889 -0.369757L345.941 0.628917ZM381.773 5.01683L381.085 5.7419L381.085 5.7419L381.773 5.01683ZM382.502 453.239L383.227 453.927L383.227 453.927L382.502 453.239ZM350.059 460.417L350.008 459.418L350.008 459.418L350.059 460.417ZM42.0592 476.293L42.0077 475.294L42.0077 475.294L42.0592 476.293ZM6.22668 471.905L6.91535 471.18L6.91534 471.18L6.22668 471.905ZM5.49843 23.6832L6.22351 24.3719L6.22351 24.3719L5.49843 23.6832ZM37.9409 16.5052L37.9924 17.5039L37.9409 16.5052ZM277.379 4.16302L277.328 3.16435L277.379 4.16302ZM252.129 8.32475L251.205 7.9431L252.129 8.32475ZM294 98.4609C294 153.137 249.676 197.461 195 197.461V199.461C250.781 199.461 296 154.242 296 98.4609H294ZM268.386 32.0108C284.304 49.5794 294 72.8867 294 98.4609H296C296 72.3713 286.107 48.59 269.868 30.6679L268.386 32.0108ZM277.431 5.1617L345.992 1.62759L345.889 -0.369757L277.328 3.16435L277.431 5.1617ZM345.992 1.62759C355.89 1.11741 363.21 0.74227 368.839 1.22003C374.439 1.69533 378.203 3.00488 381.085 5.7419L382.462 4.29175C379.117 1.11478 374.834 -0.278308 369.008 -0.772807C363.211 -1.26486 355.729 -0.876954 345.889 -0.369757L345.992 1.62759ZM381.085 5.7419C383.966 8.47892 385.468 12.1709 386.231 17.7386C386.998 23.335 387 30.6652 387 40.5759H389C389 30.7232 389.002 23.2309 388.212 17.4671C387.419 11.6746 385.807 7.46871 382.462 4.29175L381.085 5.7419ZM387 40.5759V420.47H389V40.5759H387ZM387 420.47C387 429.49 386.998 436.158 386.321 441.298C385.648 446.409 384.323 449.869 381.777 452.55L383.227 453.927C386.178 450.819 387.602 446.888 388.304 441.559C389.002 436.258 389 429.435 389 420.47H387ZM381.777 452.55C379.23 455.231 375.843 456.733 370.773 457.668C365.675 458.608 359.016 458.954 350.008 459.418L350.111 461.415C359.064 460.954 365.878 460.605 371.136 459.635C376.422 458.66 380.275 457.035 383.227 453.927L381.777 452.55ZM350.008 459.418L42.0077 475.294L42.1107 477.292L350.111 461.415L350.008 459.418ZM42.0077 475.294C32.1101 475.804 24.7895 476.18 19.1611 475.702C13.5615 475.227 9.79708 473.917 6.91535 471.18L5.53801 472.63C8.88295 475.807 13.1662 477.2 18.9919 477.695C24.7887 478.187 32.271 477.799 42.1107 477.292L42.0077 475.294ZM6.91534 471.18C4.03361 468.443 2.53201 464.751 1.76908 459.183C1.00221 453.587 1 446.257 1 436.346H-1C-1 446.199 -1.00221 453.691 -0.212407 459.455C0.581332 465.247 2.19307 469.453 5.53801 472.63L6.91534 471.18ZM1 436.346V56.4521H-1V436.346H1ZM1 56.4521C1 47.4314 1.00203 40.7641 1.67875 35.6242C2.3517 30.513 3.67681 27.0532 6.22351 24.3719L4.77335 22.9946C1.82162 26.1024 0.397518 30.0338 -0.30414 35.3631C-1.00203 40.6638 -1 47.4864 -1 56.4521H1ZM6.22351 24.3719C8.7702 21.6905 12.1571 20.1891 17.227 19.2539C22.3252 18.3135 28.9836 17.9682 37.9924 17.5039L37.8894 15.5065C28.9355 15.9681 22.1219 16.3173 16.8642 17.2871C11.578 18.2622 7.72508 19.8868 4.77335 22.9946L6.22351 24.3719ZM37.9924 17.5039L103.459 14.1293L103.356 12.1319L37.8894 15.5065L37.9924 17.5039ZM96 98.4609C96 76.5347 103.127 56.276 115.191 39.871L113.579 38.6861C101.272 55.4229 94 76.0942 94 98.4609H96ZM195 197.461C140.324 197.461 96 153.137 96 98.4609H94C94 154.242 139.219 199.461 195 199.461V197.461ZM103.459 14.1293C111.487 13.7155 117.439 13.4096 121.576 13.5496C123.648 13.6196 125.194 13.8003 126.289 14.1076C127.4 14.4194 127.863 14.8095 128.047 15.1517L129.808 14.2032C129.242 13.1529 128.142 12.5502 126.829 12.182C125.501 11.8092 123.764 11.6224 121.644 11.5507C117.4 11.4071 111.342 11.7203 103.356 12.1319L103.459 14.1293ZM115.191 39.871C120.527 32.6141 124.566 27.1224 127.078 23.0977C128.332 21.0884 129.241 19.3892 129.736 17.9828C130.217 16.6134 130.391 15.2852 129.808 14.2032L128.047 15.1517C128.215 15.4622 128.282 16.0874 127.849 17.3192C127.429 18.5141 126.614 20.0641 125.381 22.0389C122.92 25.9825 118.938 31.3989 113.579 38.6861L115.191 39.871ZM269.868 30.6679C263.788 23.9566 259.269 18.968 256.415 15.2917C254.985 13.4507 254.015 11.9903 253.474 10.8433C252.916 9.66071 252.919 9.03171 253.054 8.70639L251.205 7.9431C250.736 9.07897 251.045 10.3831 251.665 11.6967C252.302 13.046 253.381 14.6451 254.835 16.5181C257.747 20.2698 262.331 25.3273 268.386 32.0108L269.868 30.6679ZM277.328 3.16435C269.334 3.57638 263.271 3.88802 259.06 4.46715C256.957 4.75636 255.247 5.12059 253.962 5.62767C252.694 6.12849 251.66 6.84055 251.205 7.9431L253.054 8.70639C253.202 8.34774 253.622 7.91227 254.697 7.48789C255.756 7.06977 257.277 6.73114 259.332 6.4485C263.437 5.88392 269.395 5.57589 277.431 5.1617L277.328 3.16435Z" fill="url(#paint0_linear_24_1261)" mask="url(#path-1-inside-1_24_1261)"/>
</g>
<circle cx="194.5" cy="98.9609" r="41.5" fill="#FF112E"/>
<g filter="url(#filter1_b_24_1261)">
<circle cx="195" cy="98.4609" r="90" fill="black" fill-opacity="0.3"/>
<circle cx="195" cy="98.4609" r="89.5" stroke="url(#paint1_linear_24_1261)"/>
</g>
<path d="M217.89 70.959L198.64 63.749C196.645 63.014 193.39 63.014 191.395 63.749L172.145 70.959C168.435 72.359 165.425 76.699 165.425 80.654V109.004C165.425 111.839 167.28 115.584 169.555 117.264L188.805 131.649C192.2 134.204 197.765 134.204 201.16 131.649L220.41 117.264C222.685 115.549 224.54 111.839 224.54 109.004V80.654C224.575 76.699 221.565 72.359 217.89 70.959ZM207.18 90.559L192.13 105.609C191.605 106.134 190.94 106.379 190.275 106.379C189.61 106.379 188.945 106.134 188.42 105.609L182.82 99.939C181.805 98.924 181.805 97.244 182.82 96.229C183.835 95.214 185.515 95.214 186.53 96.229L190.31 100.009L203.505 86.814C204.52 85.799 206.2 85.799 207.215 86.814C208.23 87.829 208.23 89.544 207.18 90.559Z" fill="#FF112E"/>
<defs>
<filter id="filter0_b_24_1261" x="-200" y="-200" width="788" height="876.922" filterUnits="userSpaceOnUse" color-interpolation-filters="sRGB">
<feFlood flood-opacity="0" result="BackgroundImageFix"/>
<feGaussianBlur in="BackgroundImageFix" stdDeviation="100"/>
<feComposite in2="SourceAlpha" operator="in" result="effect1_backgroundBlur_24_1261"/>
<feBlend mode="normal" in="SourceGraphic" in2="effect1_backgroundBlur_24_1261" result="shape"/>
</filter>
<filter id="filter1_b_24_1261" x="55" y="-41.5391" width="280" height="280" filterUnits="userSpaceOnUse" color-interpolation-filters="sRGB">
<feFlood flood-opacity="0" result="BackgroundImageFix"/>
<feGaussianBlur in="BackgroundImageFix" stdDeviation="25"/>
<feComposite in2="SourceAlpha" operator="in" result="effect1_backgroundBlur_24_1261"/>
<feBlend mode="normal" in="SourceGraphic" in2="effect1_backgroundBlur_24_1261" result="shape"/>
</filter>
<linearGradient id="paint0_linear_24_1261" x1="-77.5" y1="106.276" x2="360.035" y2="475.69" gradientUnits="userSpaceOnUse">
<stop offset="0.320289" stop-color="white" stop-opacity="0"/>
<stop offset="1" stop-color="white"/>
</linearGradient>
<linearGradient id="paint1_linear_24_1261" x1="69.0464" y1="48.5716" x2="236.436" y2="222.29" gradientUnits="userSpaceOnUse">
<stop offset="0.320289" stop-color="white" stop-opacity="0"/>
<stop offset="1" stop-color="white"/>
</linearGradient>
</defs>
</svg>
